<svg width="437" height="152" viewBox="0 0 437 152" fill="none" xmlns="http://www.w3.org/2000/svg">
<rect x="6" y="149" width="431" height="3" rx="1.5" fill="#121212"/>
<path d="M28.5547 104.125V138H18.0547V48.375H42.6797C52.2631 48.375 59.6797 50.7083 64.9297 55.375C70.2214 60.0417 72.8672 66.625 72.8672 75.125C72.8672 83.625 69.9297 90.5833 64.0547 96C58.2214 101.417 50.3256 104.125 40.3672 104.125H28.5547ZM28.5547 57.875V94.625H39.5547C46.8047 94.625 52.3256 92.9792 56.1172 89.6875C59.9506 86.3542 61.8672 81.6667 61.8672 75.625C61.8672 63.7917 54.8672 57.875 40.8672 57.875H28.5547ZM121.805 84.375C120.013 83 117.43 82.3125 114.055 82.3125C109.68 82.3125 106.013 84.375 103.055 88.5C100.138 92.625 98.6797 98.25 98.6797 105.375V138H88.4297V74H98.6797V87.1875H98.9297C100.388 82.6875 102.617 79.1875 105.617 76.6875C108.617 74.1458 111.971 72.875 115.68 72.875C118.346 72.875 120.388 73.1667 121.805 73.75V84.375ZM159.68 139.5C150.221 139.5 142.659 136.521 136.992 130.562C131.367 124.562 128.555 116.625 128.555 106.75C128.555 96 131.492 87.6042 137.367 81.5625C143.242 75.5208 151.18 72.5 161.18 72.5C170.721 72.5 178.159 75.4375 183.492 81.3125C188.867 87.1875 191.555 95.3333 191.555 105.75C191.555 115.958 188.659 124.146 182.867 130.312C177.117 136.438 169.388 139.5 159.68 139.5ZM160.43 81.125C153.846 81.125 148.638 83.375 144.805 87.875C140.971 92.3333 139.055 98.5 139.055 106.375C139.055 113.958 140.992 119.938 144.867 124.312C148.742 128.688 153.93 130.875 160.43 130.875C167.055 130.875 172.138 128.729 175.68 124.438C179.263 120.146 181.055 114.042 181.055 106.125C181.055 98.125 179.263 91.9583 175.68 87.625C172.138 83.2917 167.055 81.125 160.43 81.125ZM237.617 137.375C235.201 138.708 232.013 139.375 228.055 139.375C216.846 139.375 211.242 133.125 211.242 120.625V82.75H200.242V74H211.242V58.375L221.492 55.0625V74H237.617V82.75H221.492V118.812C221.492 123.104 222.221 126.167 223.68 128C225.138 129.833 227.555 130.75 230.93 130.75C233.513 130.75 235.742 130.042 237.617 128.625V137.375ZM278.055 139.5C268.596 139.5 261.034 136.521 255.367 130.562C249.742 124.562 246.93 116.625 246.93 106.75C246.93 96 249.867 87.6042 255.742 81.5625C261.617 75.5208 269.555 72.5 279.555 72.5C289.096 72.5 296.534 75.4375 301.867 81.3125C307.242 87.1875 309.93 95.3333 309.93 105.75C309.93 115.958 307.034 124.146 301.242 130.312C295.492 136.438 287.763 139.5 278.055 139.5ZM278.805 81.125C272.221 81.125 267.013 83.375 263.18 87.875C259.346 92.3333 257.43 98.5 257.43 106.375C257.43 113.958 259.367 119.938 263.242 124.312C267.117 128.688 272.305 130.875 278.805 130.875C285.43 130.875 290.513 128.729 294.055 124.438C297.638 120.146 299.43 114.042 299.43 106.125C299.43 98.125 297.638 91.9583 294.055 87.625C290.513 83.2917 285.43 81.125 278.805 81.125ZM322.43 135.688V124.688C328.013 128.812 334.159 130.875 340.867 130.875C349.867 130.875 354.367 127.875 354.367 121.875C354.367 120.167 353.971 118.729 353.18 117.562C352.43 116.354 351.388 115.292 350.055 114.375C348.763 113.458 347.221 112.646 345.43 111.938C343.68 111.188 341.784 110.417 339.742 109.625C336.909 108.5 334.409 107.375 332.242 106.25C330.117 105.083 328.326 103.792 326.867 102.375C325.451 100.917 324.367 99.2708 323.617 97.4375C322.909 95.6042 322.555 93.4583 322.555 91C322.555 88 323.242 85.3542 324.617 83.0625C325.992 80.7292 327.826 78.7917 330.117 77.25C332.409 75.6667 335.013 74.4792 337.93 73.6875C340.888 72.8958 343.93 72.5 347.055 72.5C352.596 72.5 357.555 73.4583 361.93 75.375V85.75C357.221 82.6667 351.805 81.125 345.68 81.125C343.763 81.125 342.034 81.3542 340.492 81.8125C338.951 82.2292 337.617 82.8333 336.492 83.625C335.409 84.4167 334.555 85.375 333.93 86.5C333.346 87.5833 333.055 88.7917 333.055 90.125C333.055 91.7917 333.346 93.1875 333.93 94.3125C334.555 95.4375 335.451 96.4375 336.617 97.3125C337.784 98.1875 339.201 98.9792 340.867 99.6875C342.534 100.396 344.43 101.167 346.555 102C349.388 103.083 351.93 104.208 354.18 105.375C356.43 106.5 358.346 107.792 359.93 109.25C361.513 110.667 362.721 112.312 363.555 114.188C364.43 116.062 364.867 118.292 364.867 120.875C364.867 124.042 364.159 126.792 362.742 129.125C361.367 131.458 359.513 133.396 357.18 134.938C354.846 136.479 352.159 137.625 349.117 138.375C346.076 139.125 342.888 139.5 339.555 139.5C332.971 139.5 327.263 138.229 322.43 135.688Z" fill="#0D0D0D"/>
<path d="M24.952 106.653V140.528H14.452V50.9028H39.077C48.6604 50.9028 56.077 53.2362 61.327 57.9028C66.6187 62.5695 69.2645 69.1528 69.2645 77.6528C69.2645 86.1528 66.327 93.1112 60.452 98.5278C54.6187 103.944 46.7229 106.653 36.7645 106.653H24.952ZM24.952 60.4028V97.1528H35.952C43.202 97.1528 48.7229 95.507 52.5145 92.2153C56.3479 88.882 58.2645 84.1945 58.2645 78.1528C58.2645 66.3195 51.2645 60.4028 37.2645 60.4028H24.952ZM118.202 86.9028C116.41 85.5278 113.827 84.8403 110.452 84.8403C106.077 84.8403 102.41 86.9028 99.452 91.0278C96.5354 95.1528 95.077 100.778 95.077 107.903V140.528H84.827V76.5278H95.077V89.7153H95.327C96.7854 85.2153 99.0145 81.7153 102.015 79.2153C105.015 76.6737 108.369 75.4028 112.077 75.4028C114.744 75.4028 116.785 75.6945 118.202 76.2778V86.9028ZM156.077 142.028C146.619 142.028 139.056 139.049 133.39 133.09C127.765 127.09 124.952 119.153 124.952 109.278C124.952 98.5278 127.89 90.132 133.765 84.0903C139.64 78.0487 147.577 75.0278 157.577 75.0278C167.119 75.0278 174.556 77.9653 179.89 83.8403C185.265 89.7153 187.952 97.8612 187.952 108.278C187.952 118.486 185.056 126.674 179.265 132.84C173.515 138.965 165.785 142.028 156.077 142.028ZM156.827 83.6528C150.244 83.6528 145.035 85.9028 141.202 90.4028C137.369 94.8612 135.452 101.028 135.452 108.903C135.452 116.486 137.39 122.465 141.265 126.84C145.14 131.215 150.327 133.403 156.827 133.403C163.452 133.403 168.535 131.257 172.077 126.965C175.66 122.674 177.452 116.569 177.452 108.653C177.452 100.653 175.66 94.4862 172.077 90.1528C168.535 85.8195 163.452 83.6528 156.827 83.6528ZM234.015 139.903C231.598 141.236 228.41 141.903 224.452 141.903C213.244 141.903 207.64 135.653 207.64 123.153V85.2778H196.64V76.5278H207.64V60.9028L217.89 57.5903V76.5278H234.015V85.2778H217.89V121.34C217.89 125.632 218.619 128.694 220.077 130.528C221.535 132.361 223.952 133.278 227.327 133.278C229.91 133.278 232.14 132.569 234.015 131.153V139.903ZM274.452 142.028C264.994 142.028 257.431 139.049 251.765 133.09C246.14 127.09 243.327 119.153 243.327 109.278C243.327 98.5278 246.265 90.132 252.14 84.0903C258.015 78.0487 265.952 75.0278 275.952 75.0278C285.494 75.0278 292.931 77.9653 298.265 83.8403C303.64 89.7153 306.327 97.8612 306.327 108.278C306.327 118.486 303.431 126.674 297.64 132.84C291.89 138.965 284.16 142.028 274.452 142.028ZM275.202 83.6528C268.619 83.6528 263.41 85.9028 259.577 90.4028C255.744 94.8612 253.827 101.028 253.827 108.903C253.827 116.486 255.765 122.465 259.64 126.84C263.515 131.215 268.702 133.403 275.202 133.403C281.827 133.403 286.91 131.257 290.452 126.965C294.035 122.674 295.827 116.569 295.827 108.653C295.827 100.653 294.035 94.4862 290.452 90.1528C286.91 85.8195 281.827 83.6528 275.202 83.6528ZM318.827 138.215V127.215C324.41 131.34 330.556 133.403 337.265 133.403C346.265 133.403 350.765 130.403 350.765 124.403C350.765 122.694 350.369 121.257 349.577 120.09C348.827 118.882 347.785 117.819 346.452 116.903C345.16 115.986 343.619 115.174 341.827 114.465C340.077 113.715 338.181 112.944 336.14 112.153C333.306 111.028 330.806 109.903 328.64 108.778C326.515 107.611 324.723 106.319 323.265 104.903C321.848 103.444 320.765 101.799 320.015 99.9653C319.306 98.132 318.952 95.9862 318.952 93.5278C318.952 90.5278 319.64 87.882 321.015 85.5903C322.39 83.257 324.223 81.3195 326.515 79.7778C328.806 78.1945 331.41 77.007 334.327 76.2153C337.285 75.4237 340.327 75.0278 343.452 75.0278C348.994 75.0278 353.952 75.9862 358.327 77.9028V88.2778C353.619 85.1945 348.202 83.6528 342.077 83.6528C340.16 83.6528 338.431 83.882 336.89 84.3403C335.348 84.757 334.015 85.3612 332.89 86.1528C331.806 86.9445 330.952 87.9028 330.327 89.0278C329.744 90.1112 329.452 91.3195 329.452 92.6528C329.452 94.3195 329.744 95.7153 330.327 96.8403C330.952 97.9653 331.848 98.9653 333.015 99.8403C334.181 100.715 335.598 101.507 337.265 102.215C338.931 102.924 340.827 103.694 342.952 104.528C345.785 105.611 348.327 106.736 350.577 107.903C352.827 109.028 354.744 110.319 356.327 111.778C357.91 113.194 359.119 114.84 359.952 116.715C360.827 118.59 361.265 120.819 361.265 123.403C361.265 126.569 360.556 129.319 359.14 131.653C357.765 133.986 355.91 135.924 353.577 137.465C351.244 139.007 348.556 140.153 345.515 140.903C342.473 141.653 339.285 142.028 335.952 142.028C329.369 142.028 323.66 140.757 318.827 138.215Z" fill="#B9B9B9"/>
<path d="M22.25 104.125V138H11.75V48.375H36.375C45.9583 48.375 53.375 50.7083 58.625 55.375C63.9167 60.0417 66.5625 66.625 66.5625 75.125C66.5625 83.625 63.625 90.5833 57.75 96C51.9167 101.417 44.0208 104.125 34.0625 104.125H22.25ZM22.25 57.875V94.625H33.25C40.5 94.625 46.0208 92.9792 49.8125 89.6875C53.6458 86.3542 55.5625 81.6667 55.5625 75.625C55.5625 63.7917 48.5625 57.875 34.5625 57.875H22.25ZM115.5 84.375C113.708 83 111.125 82.3125 107.75 82.3125C103.375 82.3125 99.7083 84.375 96.75 88.5C93.8333 92.625 92.375 98.25 92.375 105.375V138H82.125V74H92.375V87.1875H92.625C94.0833 82.6875 96.3125 79.1875 99.3125 76.6875C102.312 74.1458 105.667 72.875 109.375 72.875C112.042 72.875 114.083 73.1667 115.5 73.75V84.375ZM153.375 139.5C143.917 139.5 136.354 136.521 130.688 130.562C125.062 124.562 122.25 116.625 122.25 106.75C122.25 96 125.188 87.6042 131.062 81.5625C136.938 75.5208 144.875 72.5 154.875 72.5C164.417 72.5 171.854 75.4375 177.188 81.3125C182.562 87.1875 185.25 95.3333 185.25 105.75C185.25 115.958 182.354 124.146 176.562 130.312C170.812 136.438 163.083 139.5 153.375 139.5ZM154.125 81.125C147.542 81.125 142.333 83.375 138.5 87.875C134.667 92.3333 132.75 98.5 132.75 106.375C132.75 113.958 134.688 119.938 138.562 124.312C142.438 128.688 147.625 130.875 154.125 130.875C160.75 130.875 165.833 128.729 169.375 124.438C172.958 120.146 174.75 114.042 174.75 106.125C174.75 98.125 172.958 91.9583 169.375 87.625C165.833 83.2917 160.75 81.125 154.125 81.125ZM231.312 137.375C228.896 138.708 225.708 139.375 221.75 139.375C210.542 139.375 204.938 133.125 204.938 120.625V82.75H193.938V74H204.938V58.375L215.188 55.0625V74H231.312V82.75H215.188V118.812C215.188 123.104 215.917 126.167 217.375 128C218.833 129.833 221.25 130.75 224.625 130.75C227.208 130.75 229.438 130.042 231.312 128.625V137.375ZM271.75 139.5C262.292 139.5 254.729 136.521 249.062 130.562C243.438 124.562 240.625 116.625 240.625 106.75C240.625 96 243.562 87.6042 249.438 81.5625C255.312 75.5208 263.25 72.5 273.25 72.5C282.792 72.5 290.229 75.4375 295.562 81.3125C300.938 87.1875 303.625 95.3333 303.625 105.75C303.625 115.958 300.729 124.146 294.938 130.312C289.188 136.438 281.458 139.5 271.75 139.5ZM272.5 81.125C265.917 81.125 260.708 83.375 256.875 87.875C253.042 92.3333 251.125 98.5 251.125 106.375C251.125 113.958 253.062 119.938 256.938 124.312C260.812 128.688 266 130.875 272.5 130.875C279.125 130.875 284.208 128.729 287.75 124.438C291.333 120.146 293.125 114.042 293.125 106.125C293.125 98.125 291.333 91.9583 287.75 87.625C284.208 83.2917 279.125 81.125 272.5 81.125ZM316.125 135.688V124.688C321.708 128.812 327.854 130.875 334.562 130.875C343.562 130.875 348.062 127.875 348.062 121.875C348.062 120.167 347.667 118.729 346.875 117.562C346.125 116.354 345.083 115.292 343.75 114.375C342.458 113.458 340.917 112.646 339.125 111.938C337.375 111.188 335.479 110.417 333.438 109.625C330.604 108.5 328.104 107.375 325.938 106.25C323.812 105.083 322.021 103.792 320.562 102.375C319.146 100.917 318.062 99.2708 317.312 97.4375C316.604 95.6042 316.25 93.4583 316.25 91C316.25 88 316.938 85.3542 318.312 83.0625C319.688 80.7292 321.521 78.7917 323.812 77.25C326.104 75.6667 328.708 74.4792 331.625 73.6875C334.583 72.8958 337.625 72.5 340.75 72.5C346.292 72.5 351.25 73.4583 355.625 75.375V85.75C350.917 82.6667 345.5 81.125 339.375 81.125C337.458 81.125 335.729 81.3542 334.188 81.8125C332.646 82.2292 331.312 82.8333 330.188 83.625C329.104 84.4167 328.25 85.375 327.625 86.5C327.042 87.5833 326.75 88.7917 326.75 90.125C326.75 91.7917 327.042 93.1875 327.625 94.3125C328.25 95.4375 329.146 96.4375 330.312 97.3125C331.479 98.1875 332.896 98.9792 334.562 99.6875C336.229 100.396 338.125 101.167 340.25 102C343.083 103.083 345.625 104.208 347.875 105.375C350.125 106.5 352.042 107.792 353.625 109.25C355.208 110.667 356.417 112.312 357.25 114.188C358.125 116.062 358.562 118.292 358.562 120.875C358.562 124.042 357.854 126.792 356.438 129.125C355.062 131.458 353.208 133.396 350.875 134.938C348.542 136.479 345.854 137.625 342.812 138.375C339.771 139.125 336.583 139.5 333.25 139.5C326.667 139.5 320.958 138.229 316.125 135.688Z" fill="#0B0B0B"/>
</svg>
