<svg width="437" height="152" viewBox="0 0 437 152" fill="none" xmlns="http://www.w3.org/2000/svg">
<rect x="6.5" y="149.5" width="430" height="2" rx="1" fill="#F9F9F9" stroke="white"/>
<path d="M28.4123 104.125V138H17.9123V48.375H42.5373C52.1206 48.375 59.5373 50.7083 64.7873 55.375C70.079 60.0417 72.7248 66.625 72.7248 75.125C72.7248 83.625 69.7873 90.5833 63.9123 96C58.079 101.417 50.1831 104.125 40.2248 104.125H28.4123ZM28.4123 57.875V94.625H39.4123C46.6623 94.625 52.1831 92.9792 55.9748 89.6875C59.8081 86.3542 61.7248 81.6667 61.7248 75.625C61.7248 63.7917 54.7248 57.875 40.7248 57.875H28.4123ZM121.662 84.375C119.871 83 117.287 82.3125 113.912 82.3125C109.537 82.3125 105.871 84.375 102.912 88.5C99.9956 92.625 98.5373 98.25 98.5373 105.375V138H88.2873V74H98.5373V87.1875H98.7873C100.246 82.6875 102.475 79.1875 105.475 76.6875C108.475 74.1458 111.829 72.875 115.537 72.875C118.204 72.875 120.246 73.1667 121.662 73.75V84.375ZM159.537 139.5C150.079 139.5 142.516 136.521 136.85 130.562C131.225 124.562 128.412 116.625 128.412 106.75C128.412 96 131.35 87.6042 137.225 81.5625C143.1 75.5208 151.037 72.5 161.037 72.5C170.579 72.5 178.016 75.4375 183.35 81.3125C188.725 87.1875 191.412 95.3333 191.412 105.75C191.412 115.958 188.516 124.146 182.725 130.312C176.975 136.438 169.246 139.5 159.537 139.5ZM160.287 81.125C153.704 81.125 148.496 83.375 144.662 87.875C140.829 92.3333 138.912 98.5 138.912 106.375C138.912 113.958 140.85 119.938 144.725 124.312C148.6 128.688 153.787 130.875 160.287 130.875C166.912 130.875 171.996 128.729 175.537 124.438C179.121 120.146 180.912 114.042 180.912 106.125C180.912 98.125 179.121 91.9583 175.537 87.625C171.996 83.2917 166.912 81.125 160.287 81.125ZM237.475 137.375C235.058 138.708 231.871 139.375 227.912 139.375C216.704 139.375 211.1 133.125 211.1 120.625V82.75H200.1V74H211.1V58.375L221.35 55.0625V74H237.475V82.75H221.35V118.812C221.35 123.104 222.079 126.167 223.537 128C224.996 129.833 227.412 130.75 230.787 130.75C233.371 130.75 235.6 130.042 237.475 128.625V137.375ZM277.912 139.5C268.454 139.5 260.891 136.521 255.225 130.562C249.6 124.562 246.787 116.625 246.787 106.75C246.787 96 249.725 87.6042 255.6 81.5625C261.475 75.5208 269.412 72.5 279.412 72.5C288.954 72.5 296.391 75.4375 301.725 81.3125C307.1 87.1875 309.787 95.3333 309.787 105.75C309.787 115.958 306.891 124.146 301.1 130.312C295.35 136.438 287.621 139.5 277.912 139.5ZM278.662 81.125C272.079 81.125 266.871 83.375 263.037 87.875C259.204 92.3333 257.287 98.5 257.287 106.375C257.287 113.958 259.225 119.938 263.1 124.312C266.975 128.688 272.162 130.875 278.662 130.875C285.287 130.875 290.371 128.729 293.912 124.438C297.496 120.146 299.287 114.042 299.287 106.125C299.287 98.125 297.496 91.9583 293.912 87.625C290.371 83.2917 285.287 81.125 278.662 81.125ZM322.287 135.688V124.688C327.871 128.812 334.016 130.875 340.725 130.875C349.725 130.875 354.225 127.875 354.225 121.875C354.225 120.167 353.829 118.729 353.037 117.562C352.287 116.354 351.246 115.292 349.912 114.375C348.621 113.458 347.079 112.646 345.287 111.938C343.537 111.188 341.641 110.417 339.6 109.625C336.766 108.5 334.266 107.375 332.1 106.25C329.975 105.083 328.183 103.792 326.725 102.375C325.308 100.917 324.225 99.2708 323.475 97.4375C322.766 95.6042 322.412 93.4583 322.412 91C322.412 88 323.1 85.3542 324.475 83.0625C325.85 80.7292 327.683 78.7917 329.975 77.25C332.266 75.6667 334.871 74.4792 337.787 73.6875C340.746 72.8958 343.787 72.5 346.912 72.5C352.454 72.5 357.412 73.4583 361.787 75.375V85.75C357.079 82.6667 351.662 81.125 345.537 81.125C343.621 81.125 341.891 81.3542 340.35 81.8125C338.808 82.2292 337.475 82.8333 336.35 83.625C335.266 84.4167 334.412 85.375 333.787 86.5C333.204 87.5833 332.912 88.7917 332.912 90.125C332.912 91.7917 333.204 93.1875 333.787 94.3125C334.412 95.4375 335.308 96.4375 336.475 97.3125C337.641 98.1875 339.058 98.9792 340.725 99.6875C342.391 100.396 344.287 101.167 346.412 102C349.246 103.083 351.787 104.208 354.037 105.375C356.287 106.5 358.204 107.792 359.787 109.25C361.371 110.667 362.579 112.312 363.412 114.188C364.287 116.062 364.725 118.292 364.725 120.875C364.725 124.042 364.016 126.792 362.6 129.125C361.225 131.458 359.371 133.396 357.037 134.938C354.704 136.479 352.016 137.625 348.975 138.375C345.933 139.125 342.746 139.5 339.412 139.5C332.829 139.5 327.121 138.229 322.287 135.688Z" fill="white"/>
<path d="M24.891 106.653V140.528H14.391V50.9028H39.016C48.5993 50.9028 56.016 53.2362 61.266 57.9028C66.5577 62.5695 69.2035 69.1528 69.2035 77.6528C69.2035 86.1528 66.266 93.1112 60.391 98.5278C54.5577 103.944 46.6618 106.653 36.7035 106.653H24.891ZM24.891 60.4028V97.1528H35.891C43.141 97.1528 48.6618 95.507 52.4535 92.2153C56.2868 88.882 58.2035 84.1945 58.2035 78.1528C58.2035 66.3195 51.2035 60.4028 37.2035 60.4028H24.891ZM118.141 86.9028C116.349 85.5278 113.766 84.8403 110.391 84.8403C106.016 84.8403 102.349 86.9028 99.391 91.0278C96.4743 95.1528 95.016 100.778 95.016 107.903V140.528H84.766V76.5278H95.016V89.7153H95.266C96.7243 85.2153 98.9535 81.7153 101.953 79.2153C104.953 76.6737 108.308 75.4028 112.016 75.4028C114.683 75.4028 116.724 75.6945 118.141 76.2778V86.9028ZM156.016 142.028C146.558 142.028 138.995 139.049 133.328 133.09C127.703 127.09 124.891 119.153 124.891 109.278C124.891 98.5278 127.828 90.132 133.703 84.0903C139.578 78.0487 147.516 75.0278 157.516 75.0278C167.058 75.0278 174.495 77.9653 179.828 83.8403C185.203 89.7153 187.891 97.8612 187.891 108.278C187.891 118.486 184.995 126.674 179.203 132.84C173.453 138.965 165.724 142.028 156.016 142.028ZM156.766 83.6528C150.183 83.6528 144.974 85.9028 141.141 90.4028C137.308 94.8612 135.391 101.028 135.391 108.903C135.391 116.486 137.328 122.465 141.203 126.84C145.078 131.215 150.266 133.403 156.766 133.403C163.391 133.403 168.474 131.257 172.016 126.965C175.599 122.674 177.391 116.569 177.391 108.653C177.391 100.653 175.599 94.4862 172.016 90.1528C168.474 85.8195 163.391 83.6528 156.766 83.6528ZM233.953 139.903C231.537 141.236 228.349 141.903 224.391 141.903C213.183 141.903 207.578 135.653 207.578 123.153V85.2778H196.578V76.5278H207.578V60.9028L217.828 57.5903V76.5278H233.953V85.2778H217.828V121.34C217.828 125.632 218.558 128.694 220.016 130.528C221.474 132.361 223.891 133.278 227.266 133.278C229.849 133.278 232.078 132.569 233.953 131.153V139.903ZM274.391 142.028C264.933 142.028 257.37 139.049 251.703 133.09C246.078 127.09 243.266 119.153 243.266 109.278C243.266 98.5278 246.203 90.132 252.078 84.0903C257.953 78.0487 265.891 75.0278 275.891 75.0278C285.433 75.0278 292.87 77.9653 298.203 83.8403C303.578 89.7153 306.266 97.8612 306.266 108.278C306.266 118.486 303.37 126.674 297.578 132.84C291.828 138.965 284.099 142.028 274.391 142.028ZM275.141 83.6528C268.558 83.6528 263.349 85.9028 259.516 90.4028C255.683 94.8612 253.766 101.028 253.766 108.903C253.766 116.486 255.703 122.465 259.578 126.84C263.453 131.215 268.641 133.403 275.141 133.403C281.766 133.403 286.849 131.257 290.391 126.965C293.974 122.674 295.766 116.569 295.766 108.653C295.766 100.653 293.974 94.4862 290.391 90.1528C286.849 85.8195 281.766 83.6528 275.141 83.6528ZM318.766 138.215V127.215C324.349 131.34 330.495 133.403 337.203 133.403C346.203 133.403 350.703 130.403 350.703 124.403C350.703 122.694 350.308 121.257 349.516 120.09C348.766 118.882 347.724 117.819 346.391 116.903C345.099 115.986 343.558 115.174 341.766 114.465C340.016 113.715 338.12 112.944 336.078 112.153C333.245 111.028 330.745 109.903 328.578 108.778C326.453 107.611 324.662 106.319 323.203 104.903C321.787 103.444 320.703 101.799 319.953 99.9653C319.245 98.132 318.891 95.9862 318.891 93.5278C318.891 90.5278 319.578 87.882 320.953 85.5903C322.328 83.257 324.162 81.3195 326.453 79.7778C328.745 78.1945 331.349 77.007 334.266 76.2153C337.224 75.4237 340.266 75.0278 343.391 75.0278C348.933 75.0278 353.891 75.9862 358.266 77.9028V88.2778C353.558 85.1945 348.141 83.6528 342.016 83.6528C340.099 83.6528 338.37 83.882 336.828 84.3403C335.287 84.757 333.953 85.3612 332.828 86.1528C331.745 86.9445 330.891 87.9028 330.266 89.0278C329.683 90.1112 329.391 91.3195 329.391 92.6528C329.391 94.3195 329.683 95.7153 330.266 96.8403C330.891 97.9653 331.787 98.9653 332.953 99.8403C334.12 100.715 335.537 101.507 337.203 102.215C338.87 102.924 340.766 103.694 342.891 104.528C345.724 105.611 348.266 106.736 350.516 107.903C352.766 109.028 354.683 110.319 356.266 111.778C357.849 113.194 359.058 114.84 359.891 116.715C360.766 118.59 361.203 120.819 361.203 123.403C361.203 126.569 360.495 129.319 359.078 131.653C357.703 133.986 355.849 135.924 353.516 137.465C351.183 139.007 348.495 140.153 345.453 140.903C342.412 141.653 339.224 142.028 335.891 142.028C329.308 142.028 323.599 140.757 318.766 138.215Z" fill="#6B6B6B"/>
<path d="M22.25 104.125V138H11.75V48.375H36.375C45.9583 48.375 53.375 50.7083 58.625 55.375C63.9167 60.0417 66.5625 66.625 66.5625 75.125C66.5625 83.625 63.625 90.5833 57.75 96C51.9167 101.417 44.0208 104.125 34.0625 104.125H22.25ZM22.25 57.875V94.625H33.25C40.5 94.625 46.0208 92.9792 49.8125 89.6875C53.6458 86.3542 55.5625 81.6667 55.5625 75.625C55.5625 63.7917 48.5625 57.875 34.5625 57.875H22.25ZM115.5 84.375C113.708 83 111.125 82.3125 107.75 82.3125C103.375 82.3125 99.7083 84.375 96.75 88.5C93.8333 92.625 92.375 98.25 92.375 105.375V138H82.125V74H92.375V87.1875H92.625C94.0833 82.6875 96.3125 79.1875 99.3125 76.6875C102.312 74.1458 105.667 72.875 109.375 72.875C112.042 72.875 114.083 73.1667 115.5 73.75V84.375ZM153.375 139.5C143.917 139.5 136.354 136.521 130.688 130.562C125.062 124.562 122.25 116.625 122.25 106.75C122.25 96 125.188 87.6042 131.062 81.5625C136.938 75.5208 144.875 72.5 154.875 72.5C164.417 72.5 171.854 75.4375 177.188 81.3125C182.562 87.1875 185.25 95.3333 185.25 105.75C185.25 115.958 182.354 124.146 176.562 130.312C170.812 136.438 163.083 139.5 153.375 139.5ZM154.125 81.125C147.542 81.125 142.333 83.375 138.5 87.875C134.667 92.3333 132.75 98.5 132.75 106.375C132.75 113.958 134.688 119.938 138.562 124.312C142.438 128.688 147.625 130.875 154.125 130.875C160.75 130.875 165.833 128.729 169.375 124.438C172.958 120.146 174.75 114.042 174.75 106.125C174.75 98.125 172.958 91.9583 169.375 87.625C165.833 83.2917 160.75 81.125 154.125 81.125ZM231.312 137.375C228.896 138.708 225.708 139.375 221.75 139.375C210.542 139.375 204.938 133.125 204.938 120.625V82.75H193.938V74H204.938V58.375L215.188 55.0625V74H231.312V82.75H215.188V118.812C215.188 123.104 215.917 126.167 217.375 128C218.833 129.833 221.25 130.75 224.625 130.75C227.208 130.75 229.438 130.042 231.312 128.625V137.375ZM271.75 139.5C262.292 139.5 254.729 136.521 249.062 130.562C243.438 124.562 240.625 116.625 240.625 106.75C240.625 96 243.562 87.6042 249.438 81.5625C255.312 75.5208 263.25 72.5 273.25 72.5C282.792 72.5 290.229 75.4375 295.562 81.3125C300.938 87.1875 303.625 95.3333 303.625 105.75C303.625 115.958 300.729 124.146 294.938 130.312C289.188 136.438 281.458 139.5 271.75 139.5ZM272.5 81.125C265.917 81.125 260.708 83.375 256.875 87.875C253.042 92.3333 251.125 98.5 251.125 106.375C251.125 113.958 253.062 119.938 256.938 124.312C260.812 128.688 266 130.875 272.5 130.875C279.125 130.875 284.208 128.729 287.75 124.438C291.333 120.146 293.125 114.042 293.125 106.125C293.125 98.125 291.333 91.9583 287.75 87.625C284.208 83.2917 279.125 81.125 272.5 81.125ZM316.125 135.688V124.688C321.708 128.812 327.854 130.875 334.562 130.875C343.562 130.875 348.062 127.875 348.062 121.875C348.062 120.167 347.667 118.729 346.875 117.562C346.125 116.354 345.083 115.292 343.75 114.375C342.458 113.458 340.917 112.646 339.125 111.938C337.375 111.188 335.479 110.417 333.438 109.625C330.604 108.5 328.104 107.375 325.938 106.25C323.812 105.083 322.021 103.792 320.562 102.375C319.146 100.917 318.062 99.2708 317.312 97.4375C316.604 95.6042 316.25 93.4583 316.25 91C316.25 88 316.938 85.3542 318.312 83.0625C319.688 80.7292 321.521 78.7917 323.812 77.25C326.104 75.6667 328.708 74.4792 331.625 73.6875C334.583 72.8958 337.625 72.5 340.75 72.5C346.292 72.5 351.25 73.4583 355.625 75.375V85.75C350.917 82.6667 345.5 81.125 339.375 81.125C337.458 81.125 335.729 81.3542 334.188 81.8125C332.646 82.2292 331.312 82.8333 330.188 83.625C329.104 84.4167 328.25 85.375 327.625 86.5C327.042 87.5833 326.75 88.7917 326.75 90.125C326.75 91.7917 327.042 93.1875 327.625 94.3125C328.25 95.4375 329.146 96.4375 330.312 97.3125C331.479 98.1875 332.896 98.9792 334.562 99.6875C336.229 100.396 338.125 101.167 340.25 102C343.083 103.083 345.625 104.208 347.875 105.375C350.125 106.5 352.042 107.792 353.625 109.25C355.208 110.667 356.417 112.312 357.25 114.188C358.125 116.062 358.562 118.292 358.562 120.875C358.562 124.042 357.854 126.792 356.438 129.125C355.062 131.458 353.208 133.396 350.875 134.938C348.542 136.479 345.854 137.625 342.812 138.375C339.771 139.125 336.583 139.5 333.25 139.5C326.667 139.5 320.958 138.229 316.125 135.688Z" fill="white"/>
</svg>
